<?xml version="1.0" encoding="UTF-8" standalone="no"?>
<svg
   xmlns:dc="http://purl.org/dc/elements/1.1/"
   xmlns:cc="http://creativecommons.org/ns#"
   xmlns:rdf="http://www.w3.org/1999/02/22-rdf-syntax-ns#"
   xmlns:svg="http://www.w3.org/2000/svg"
   xmlns="http://www.w3.org/2000/svg"
   xmlns:sodipodi="http://sodipodi.sourceforge.net/DTD/sodipodi-0.dtd"
   xmlns:inkscape="http://www.inkscape.org/namespaces/inkscape"
   version="1.1"
   id="svg2"
   xml:space="preserve"
   width="4486.6665"
   height="2666.6667"
   viewBox="0 0 4486.6665 2666.6667"
   sodipodi:docname="8432.eps"><metadata
     id="metadata8"><rdf:RDF><cc:Work
         rdf:about=""><dc:format>image/svg+xml</dc:format><dc:type
           rdf:resource="http://purl.org/dc/dcmitype/StillImage" /></cc:Work></rdf:RDF></metadata><defs
     id="defs6" /><sodipodi:namedview
     pagecolor="#ffffff"
     bordercolor="#666666"
     borderopacity="1"
     objecttolerance="10"
     gridtolerance="10"
     guidetolerance="10"
     inkscape:pageopacity="0"
     inkscape:pageshadow="2"
     inkscape:window-width="640"
     inkscape:window-height="480"
     id="namedview4" /><g
     id="g10"
     inkscape:groupmode="layer"
     inkscape:label="ink_ext_XXXXXX"
     transform="matrix(1.3333333,0,0,-1.3333333,0,2666.6667)"><g
       id="g12"
       transform="scale(0.1)"><path
         d="M 0,0 H 33650 V 20000 H 0 Z"
         style="fill:#ffffff;fill-opacity:1;fill-rule:nonzero;stroke:none"
         id="path14" /><path
         d="m 9269.4,18508.9 c 4372.8,252.9 8957.6,-1064.3 8283.6,-2973.8 -389.9,-1104.7 877.3,-704.1 2345.2,-303.6 1069.3,291.8 2245.2,583.6 2964.5,293.4 1215.1,-490.1 729.4,-1982.2 1317.3,-2583.4 712.4,-728.6 1433.5,-587.1 2208.3,-445.6 691,126.3 1424.8,252.5 2233.4,-238.5 1715.5,-1041.5 1002.2,-10781.4 303.7,-10780 l -26454,48.3 -316.53,-10.3 c 0,0 -1940.093,2797.9 -183.81,4431.6 1756.29,1633.8 550.41,2380.8 336.97,3012.2 -245.07,725 -816.89,1991.2 1674.6,2920.4 2491.48,929.2 1848.18,2951 1786.92,3369.6 -61.26,418.7 -872.97,3006.9 3499.85,3259.7"
         style="fill:#eafcfc;fill-opacity:1;fill-rule:nonzero;stroke:none"
         id="path16" /><path
         d="m 24752.4,13459.3 h -837.3 c -190.6,702.5 -109.9,1685.5 -1052.4,2065.6 -36.9,14.9 -75,28.3 -114.3,40.2 v 1469.1 h 2004 v -3574.9"
         style="fill:#c3dafb;fill-opacity:1;fill-rule:nonzero;stroke:none"
         id="path18" /><path
         d="m 22748.4,1523 v 0 14042.1 c 39.3,-11.9 77.4,-25.3 114.3,-40.2 942.5,-380.1 861.8,-1363.1 1052.4,-2065.6 H 22748.4 V 1523"
         style="fill:#bbd9fa;fill-opacity:1;fill-rule:nonzero;stroke:none"
         id="path20" /><path
         d="m 19949.8,1523 v 0 10779.9 h 2003.9 V 9818.5 H 19949.8 V 1523"
         style="fill:#bbd9fa;fill-opacity:1;fill-rule:nonzero;stroke:none"
         id="path22" /><path
         d="m 25587.3,12384.4 v 1289.2 h 2004 v -1073.7 c -79.5,7 -158.2,10.2 -236.3,10.2 -333,0 -654.2,-57.1 -966.7,-114.2 -273,-49.8 -539.4,-99.7 -801,-111.5"
         style="fill:#c3dafb;fill-opacity:1;fill-rule:nonzero;stroke:none"
         id="path24" /><path
         d="m 25587.3,1523 v 0 10861.4 c 261.6,11.8 528,61.7 801,111.5 312.5,57.1 633.7,114.2 966.7,114.2 78.1,0 156.8,-3.2 236.3,-10.2 v -1726.7 h -2004 V 1523"
         style="fill:#bbd9fa;fill-opacity:1;fill-rule:nonzero;stroke:none"
         id="path26" /><path
         d="m 17151.1,1523 v 0 12628.4 h 2004 v -2910.5 h -2004 V 1523"
         style="fill:#bbd9fa;fill-opacity:1;fill-rule:nonzero;stroke:none"
         id="path28" /><path
         d="m 14352.5,1523 v 0 8884.2 h 2004 V 8359.6 h -2004 V 1523"
         style="fill:#bbd9fa;fill-opacity:1;fill-rule:nonzero;stroke:none"
         id="path30" /><path
         d="m 24752.4,12527.9 c -192,87 -382.5,219.4 -572.4,413.6 -131.9,134.9 -209.8,314.6 -264.9,517.8 h 837.3 v -931.4"
         style="fill:#accaf9;fill-opacity:1;fill-rule:nonzero;stroke:none"
         id="path32" /><path
         d="m 24752.4,1523 h -2004 v 11936.3 h 1166.7 c 55.1,-203.2 133,-382.9 264.9,-517.8 189.9,-194.2 380.4,-326.6 572.4,-413.6 V 1523"
         style="fill:#a5c9f8;fill-opacity:1;fill-rule:nonzero;stroke:none"
         id="path34" /><path
         d="m 19949.8,1523 h 2003.9 v 8295.5 h -2003.9 z"
         style="fill:#a5c9f8;fill-opacity:1;fill-rule:nonzero;stroke:none"
         id="path36" /><path
         d="m 25587.3,1523 h 2004 v 9350.21 h -2004 z"
         style="fill:#a5c9f8;fill-opacity:1;fill-rule:nonzero;stroke:none"
         id="path38" /><path
         d="m 17151.1,1523 h 2004 v 9717.93 h -2004 z"
         style="fill:#a5c9f8;fill-opacity:1;fill-rule:nonzero;stroke:none"
         id="path40" /><path
         d="m 14352.5,1523 h 2004 v 6836.6 h -2004 z"
         style="fill:#a5c9f8;fill-opacity:1;fill-rule:nonzero;stroke:none"
         id="path42" /><path
         d="m 28565.3,16915.5 -1596.8,-1207.6 609.1,-38.9 -3811.8,-6708.7 -2110.6,3164.2 -2985.6,-6964.1 -1920.4,2727.7 -2393.6,-3383.5 150.6,-605.6 2241.9,3153.8 2030,-2883.3 2974.7,6938.6 2047.8,-3070.2 4220.1,7427.4 391.8,-421.4 152.8,1871.6"
         style="fill:#5183bf;fill-opacity:1;fill-rule:nonzero;stroke:none"
         id="path44" /><path
         d="M 12529.9,6008.1 C 10238.4,7832.9 8313.02,10193.1 6855.2,12964.4 5804.61,12120.4 4754.02,11276.5 3703.44,10432.5 5389,7228.3 7615.16,4499.4 10264.6,2389.6 c 755.1,1206.2 1510.2,2412.3 2265.3,3618.5"
         style="fill:#3c8f7c;fill-opacity:1;fill-rule:nonzero;stroke:none"
         id="path46" /><path
         d="M 6361.7,12302.7 C 5709.1,11770 5056.5,11237.4 4403.9,10704.8 c 155.41,-289.7 99.02,-680.6 -132.51,-878.9 1481.75,-2620 3338.76,-4896.4 5501.2,-6743.6 176.81,265.4 510.01,316.9 749.51,122.6 476.1,748.9 952.3,1497.9 1428.4,2246.8 -220.4,178.8 -251.8,544.3 -75.1,809.5 -1898.99,1622.1 -3529.73,3621.1 -4830.93,5921.9 -231.36,-198.2 -539.73,-147.1 -682.77,119.6"
         style="fill:#96d9c9;fill-opacity:1;fill-rule:nonzero;stroke:none"
         id="path48" /><path
         d="m 8999.05,6313.3 c 489.26,631.4 484.58,1562.9 23.06,2120.2 -462.77,555.8 -1253.42,581.9 -1800.39,20 -546.09,-560.7 -598.28,-1557.4 -78.04,-2183.2 519.65,-626.5 1367.12,-587.4 1855.37,43"
         style="fill:#50bfa5;fill-opacity:1;fill-rule:nonzero;stroke:none"
         id="path50" /><path
         d="m 8966.65,8105.1 c -61.47,-68.3 -122.96,-136.5 -184.46,-204.7 147.08,-269.6 115.95,-548.2 -42.63,-730.3 -160.09,-183.2 -339.35,-200.2 -612.62,-38.3 -198.46,112.1 -293.85,145.2 -354.32,79.7 -51.17,-55.3 -68.12,-155.7 40.32,-292.8 58.93,-74.4 117.78,-124.1 169.89,-159.1 69.45,-46.7 91.39,-152.2 48.6,-233.4 -41.4,-78.4 -128.81,-104.4 -195.75,-56.7 -54.71,39 -114.47,92.2 -178.95,166.1 -53.19,-58.8 -106.38,-117.4 -159.59,-176.1 -55.71,69.8 -111.1,140.1 -166.13,210.6 57.91,62.8 115.81,125.5 173.7,188.3 -140.48,271.3 -112.56,541.1 50.5,712.2 179.98,189 388.1,130.9 626.67,-18.7 165.43,-103.2 261.32,-119.5 329.85,-43.3 72.22,80.5 48.71,203.2 -42.28,319.2 -62.49,79.7 -134.94,140.4 -206.4,185.4 -70.2,44.3 -89.29,152.4 -42.08,233.2 1.72,3 3.43,6 5.15,8.9 42.84,73.4 124.67,98.2 187.07,57.5 74.82,-48.8 155.32,-118.6 226.4,-201.4 57.75,62.9 115.5,125.9 173.22,188.9 50.96,-65.4 102.25,-130.5 153.84,-195.2"
         style="fill:#3c8f7c;fill-opacity:1;fill-rule:nonzero;stroke:none"
         id="path52" /><path
         d="m 10804.4,4688.5 c -522.2,447.2 -1025.42,921 -1508.46,1420.1 -82.78,-107.6 -165.55,-215.3 -248.33,-322.9 489.81,-506.1 1000.09,-986.6 1529.59,-1440 75.7,114.3 151.4,228.6 227.2,342.8"
         style="fill:#50bfa5;fill-opacity:1;fill-rule:nonzero;stroke:none"
         id="path54" /><path
         d="M 12062.7,6743.8 C 9184.42,7108.9 6361.67,8071.9 3743.09,9582.1 3245.28,8415.8 2747.47,7249.4 2249.66,6083.1 5277.33,4336.9 8541.06,3223.4 11869,2801.4 c 64.5,1314.1 129.1,2628.3 193.7,3942.4"
         style="fill:#3c8f7c;fill-opacity:1;fill-rule:nonzero;stroke:none"
         id="path56" /><path
         d="m 3638.97,8823.7 c -305.14,-731.2 -610.26,-1462.3 -915.4,-2193.5 276.37,-156.5 418.64,-493.3 314.94,-760.1 2565.35,-1378.9 5287.88,-2307.7 8065.19,-2751.5 23.5,294.2 287.1,492.5 589.7,451.5 46.4,819.5 92.8,1638.9 139.2,2458.3 -278.4,37.8 -484.4,312.9 -460.9,606.9 C 8932.73,7025 6541.94,7840.7 4289.17,9051.5 4185.56,8784.9 3893.31,8679.7 3638.97,8823.7"
         style="fill:#96d9c9;fill-opacity:1;fill-rule:nonzero;stroke:none"
         id="path58" /><path
         d="M 8853.41,5317.1 C 8968.68,6049.4 8509.11,6786.5 7836.65,7010.6 7163.8,7232.9 6465.78,6880 6266.51,6175.5 6067.45,5472.4 6509.61,4656.7 7266.48,4406 c 756.69,-251.6 1472.05,180 1586.93,911.1"
         style="fill:#50bfa5;fill-opacity:1;fill-rule:nonzero;stroke:none"
         id="path60" /><path
         d="m 7949.15,6723.8 c -19.9,-83.3 -39.81,-166.5 -59.75,-249.7 259.31,-144.4 368.55,-380.2 320.14,-599.7 -49.12,-221.1 -196.19,-319.3 -512.18,-320 -226.82,-4.8 -325.68,-23.6 -346.03,-104.2 -17.31,-68.1 17.1,-155.8 178.12,-213.3 87.43,-31.2 162.73,-42.8 225.02,-46 83.03,-4.2 153.63,-77.6 156.22,-162.2 2.47,-81.8 -60.54,-143.8 -141.89,-137.5 -66.49,5 -144.29,19 -236.3,47.2 -17.38,-71.8 -34.79,-143.5 -52.2,-215.2 -82.45,29.1 -164.78,58.7 -246.99,88.6 19.51,77.2 38.99,154.4 58.47,231.6 -254.43,148.9 -362.12,376.1 -304.48,589 63.54,235.1 272.31,287.4 552.25,281.4 193.85,-3.7 284.92,28.7 307.03,121.6 23.21,98 -57.17,184.3 -192.75,233.3 -93.13,33.7 -185.6,47.7 -269.54,49.6 -82.46,1.9 -151.89,78.7 -150.51,165.2 0.05,3.1 0.1,6.3 0.14,9.4 1.25,78.5 60,136.9 134,134.1 88.73,-3.4 192.59,-20.7 294.71,-52.8 19.27,77.2 38.53,154.5 57.77,231.7 76.13,-27.8 152.39,-55.1 228.75,-82.1"
         style="fill:#3c8f7c;fill-opacity:1;fill-rule:nonzero;stroke:none"
         id="path62" /><path
         d="m 10741,12552.4 c -69.8,23.4 -138.5,49.8 -204.9,81.7 -75,36.1 -172.2,78.3 -233.6,87.7 -129.3,19.9 -351.32,6.7 -473.95,-125.9 -152.77,-165.2 -424.22,-29.8 -369.54,-894.9 61.9,-979.1 608.19,-871.6 621.39,-855 13.3,16.5 487.2,626.4 487.2,626.4 0,0 165.7,-361.3 165.7,-348 0,12.8 846.2,1146.5 7.7,1428"
         style="fill:#0e2e35;fill-opacity:1;fill-rule:nonzero;stroke:none"
         id="path64" /><path
         d="M 11316.8,6097.6 C 9052.23,5202.9 6553.67,4793.9 3952.7,4892.1 4125.32,3785.4 4297.94,2678.6 4470.56,1571.9 7477.87,1458.3 10366.8,1931.2 12985.1,2965.7 12429,4009.6 11872.9,5053.6 11316.8,6097.6"
         style="fill:#3c8f7c;fill-opacity:1;fill-rule:nonzero;stroke:none"
         id="path66" /><path
         d="m 4224.92,4262.3 c 113.26,-691 226.53,-1381.9 339.79,-2072.9 273.18,-8.1 531.42,-210.7 578.32,-459.7 2501.9,-18.3 4911.77,376.1 7138.97,1168.6 -117.9,237.3 -16.9,498.8 222.3,590.8 -342.2,653.5 -684.5,1306.9 -1026.8,1960.4 -220.2,-84.6 -496.6,44.2 -614.4,281.4 C 8907.33,5035 6791.12,4688.6 4594.08,4704.7 4640.95,4455.9 4476.3,4254.9 4224.92,4262.3"
         style="fill:#96d9c9;fill-opacity:1;fill-rule:nonzero;stroke:none"
         id="path68" /><path
         d="M 9633.41,3680.1 C 9381.27,4294.3 8708.16,4677 8115.39,4575.5 7523.12,4472.4 7176.55,3913.6 7354.7,3286.6 7532.37,2660.7 8228.9,2210 8895.39,2325.5 c 666.76,114.7 989.85,741.5 738.02,1354.6"
         style="fill:#50bfa5;fill-opacity:1;fill-rule:nonzero;stroke:none"
         id="path70" /><path
         d="m 8328.98,4399.4 c 23.71,-72.6 47.39,-145.2 71.06,-217.8 255.22,-5.7 443.03,-143.6 508.47,-333.3 65.7,-191.3 3.62,-327.5 -226.29,-457.3 -163.04,-96.5 -226.43,-151.5 -204.26,-222.3 18.63,-59.8 83.95,-113.6 227.68,-92.3 77.99,11.6 138.18,33.5 185.02,56.5 62.44,30.7 147.53,2.7 188.27,-61.7 39.35,-62.4 21.88,-136.1 -40.24,-164.6 -50.77,-23.3 -113.87,-44.3 -193.82,-60.1 20.25,-62.7 40.49,-125.3 60.72,-188 -73.43,-11.1 -146.98,-21.9 -220.65,-32.3 -21.2,67.7 -42.42,135.4 -63.65,203.1 -253.72,11.3 -436.48,143.2 -492.17,331.6 -61.62,208 66.48,333.9 273.19,443.8 142.94,76.4 194.43,138.7 167.9,219.7 -28.08,85.4 -126.24,119.3 -247.53,101.9 -83.33,-12 -157.09,-39.1 -219.14,-71.9 -60.95,-32.3 -146.79,-1.2 -185.47,66.3 -1.41,2.5 -2.83,4.9 -4.24,7.4 -35.12,61.3 -19.12,130.6 36.1,158.6 66.21,33.7 149.81,62.8 238.97,79.7 -21.41,67.7 -42.84,135.4 -64.29,203.1 68.23,9.6 136.36,19.6 204.37,29.9"
         style="fill:#3c8f7c;fill-opacity:1;fill-rule:nonzero;stroke:none"
         id="path72" /><path
         d="m 11552.3,4307.4 c -538.6,-190.9 -1088.5,-357.1 -1648.36,-498.2 43.25,-104.3 86.5,-208.5 129.76,-312.8 567.7,143.1 1125.3,311.6 1671.5,505.2 -51,101.9 -101.9,203.9 -152.9,305.8"
         style="fill:#50bfa5;fill-opacity:1;fill-rule:nonzero;stroke:none"
         id="path74" /><path
         d="m 7580.53,2447.6 v -810.8 c 0,-131.1 1462.21,-237.3 3265.97,-237.3 1803.7,0 3265.9,106.2 3265.9,237.3 v 810.8 H 7580.53"
         style="fill:#e59f39;fill-opacity:1;fill-rule:nonzero;stroke:none"
         id="path76" /><path
         d="m 9944.03,1408.6 v 1039 h -2363.5 v -810.8 c 0,-108.3 998.7,-199.7 2363.5,-228.2"
         style="fill:#eab054;fill-opacity:1;fill-rule:nonzero;stroke:none"
         id="path78" /><path
         d="m 10054,1406.5 c 253.7,-4.6 519.2,-7 792.5,-7 407.2,0 797,5.4 1156.5,15.3 V 2447.6 H 10054 V 1406.5"
         style="fill:#eab054;fill-opacity:1;fill-rule:nonzero;stroke:none"
         id="path80" /><path
         d="m 12133.9,1418.6 c 1163.6,36.3 1978.5,120.3 1978.5,218.2 v 810.8 h -1978.5 v -1029"
         style="fill:#eab054;fill-opacity:1;fill-rule:nonzero;stroke:none"
         id="path82" /><path
         d="m 14112.4,2456.2 c 0,-131.1 -1462.2,-237.4 -3265.9,-237.4 -1803.76,0 -3265.97,106.3 -3265.97,237.4 0,131 1462.21,237.3 3265.97,237.3 1803.7,0 3265.9,-106.3 3265.9,-237.3"
         style="fill:#e59f39;fill-opacity:1;fill-rule:nonzero;stroke:none"
         id="path84" /><path
         d="m 13535.9,2456.2 c 0,-90.9 -1204.1,-164.6 -2689.4,-164.6 -1485.36,0 -2689.46,73.7 -2689.46,164.6 0,90.8 1204.1,164.5 2689.46,164.5 1485.3,0 2689.4,-73.7 2689.4,-164.5"
         style="fill:#f7cc7f;fill-opacity:1;fill-rule:nonzero;stroke:none"
         id="path86" /><path
         d="m 7021.76,3305.5 v -810.8 c 0,-131 1462.21,-237.3 3265.94,-237.3 1803.7,0 3265.9,106.3 3265.9,237.3 v 810.8 H 7021.76"
         style="fill:#e59f39;fill-opacity:1;fill-rule:nonzero;stroke:none"
         id="path88" /><path
         d="m 9385.26,2266.6 v 1038.9 h -2363.5 v -810.8 c 0,-108.3 998.7,-199.7 2363.5,-228.1"
         style="fill:#eab054;fill-opacity:1;fill-rule:nonzero;stroke:none"
         id="path90" /><path
         d="m 9495.26,2264.4 c 253.71,-4.5 519.14,-7 792.44,-7 407.2,0 797,5.4 1156.5,15.3 V 3305.5 H 9495.26 V 2264.4"
         style="fill:#eab054;fill-opacity:1;fill-rule:nonzero;stroke:none"
         id="path92" /><path
         d="m 11575.1,2276.6 c 1163.6,36.3 1978.5,120.3 1978.5,218.1 v 810.8 H 11575.1 V 2276.6"
         style="fill:#eab054;fill-opacity:1;fill-rule:nonzero;stroke:none"
         id="path94" /><path
         d="m 13553.6,3314.1 c 0,-131.1 -1462.2,-237.3 -3265.9,-237.3 -1803.73,0 -3265.94,106.2 -3265.94,237.3 0,131.1 1462.21,237.3 3265.94,237.3 1803.7,0 3265.9,-106.2 3265.9,-237.3"
         style="fill:#e59f39;fill-opacity:1;fill-rule:nonzero;stroke:none"
         id="path96" /><path
         d="m 12977.1,3314.1 c 0,-90.9 -1204.1,-164.5 -2689.4,-164.5 -1485.34,0 -2689.43,73.6 -2689.43,164.5 0,90.9 1204.09,164.6 2689.43,164.6 1485.3,0 2689.4,-73.7 2689.4,-164.6"
         style="fill:#f7cc7f;fill-opacity:1;fill-rule:nonzero;stroke:none"
         id="path98" /><path
         d="m 7394.05,4186.2 v -810.7 c 0,-131.1 1462.21,-237.3 3265.95,-237.3 1803.7,0 3265.9,106.2 3265.9,237.3 v 810.7 H 7394.05"
         style="fill:#e59f39;fill-opacity:1;fill-rule:nonzero;stroke:none"
         id="path100" /><path
         d="m 9757.55,3147.3 v 1038.9 h -2363.5 v -810.7 c 0,-108.3 998.7,-199.7 2363.5,-228.2"
         style="fill:#eab054;fill-opacity:1;fill-rule:nonzero;stroke:none"
         id="path102" /><path
         d="m 9867.55,3145.2 c 253.75,-4.6 519.15,-7 792.45,-7 407.2,0 797,5.4 1156.5,15.3 V 4186.2 H 9867.55 v -1041"
         style="fill:#eab054;fill-opacity:1;fill-rule:nonzero;stroke:none"
         id="path104" /><path
         d="m 11947.4,3157.3 c 1163.6,36.3 1978.5,120.3 1978.5,218.2 v 810.7 H 11947.4 V 3157.3"
         style="fill:#eab054;fill-opacity:1;fill-rule:nonzero;stroke:none"
         id="path106" /><path
         d="m 13925.9,4194.9 c 0,-131.1 -1462.2,-237.4 -3265.9,-237.4 -1803.74,0 -3265.95,106.3 -3265.95,237.4 0,131 1462.21,237.3 3265.95,237.3 1803.7,0 3265.9,-106.3 3265.9,-237.3"
         style="fill:#e59f39;fill-opacity:1;fill-rule:nonzero;stroke:none"
         id="path108" /><path
         d="m 13349.4,4194.9 c 0,-90.9 -1204.1,-164.6 -2689.4,-164.6 -1485.35,0 -2689.44,73.7 -2689.44,164.6 0,90.8 1204.09,164.5 2689.44,164.5 1485.3,0 2689.4,-73.7 2689.4,-164.5"
         style="fill:#f7cc7f;fill-opacity:1;fill-rule:nonzero;stroke:none"
         id="path110" /><path
         d="m 7021.76,5054.9 v -810.7 c 0,-131.1 1462.21,-237.4 3265.94,-237.4 1803.7,0 3265.9,106.3 3265.9,237.4 v 810.7 H 7021.76"
         style="fill:#e59f39;fill-opacity:1;fill-rule:nonzero;stroke:none"
         id="path112" /><path
         d="m 9385.26,4016 v 1038.9 h -2363.5 v -810.7 c 0,-108.4 998.7,-199.7 2363.5,-228.2"
         style="fill:#eab054;fill-opacity:1;fill-rule:nonzero;stroke:none"
         id="path114" /><path
         d="m 9495.26,4013.9 c 253.71,-4.6 519.14,-7.1 792.44,-7.1 407.2,0 797,5.5 1156.5,15.4 V 5054.9 H 9495.26 v -1041"
         style="fill:#eab054;fill-opacity:1;fill-rule:nonzero;stroke:none"
         id="path116" /><path
         d="m 11575.1,4026 c 1163.6,36.3 1978.5,120.3 1978.5,218.2 v 810.7 H 11575.1 V 4026"
         style="fill:#eab054;fill-opacity:1;fill-rule:nonzero;stroke:none"
         id="path118" /><path
         d="m 13553.6,5063.5 c 0,-131 -1462.2,-237.3 -3265.9,-237.3 -1803.73,0 -3265.94,106.3 -3265.94,237.3 0,131.1 1462.21,237.4 3265.94,237.4 1803.7,0 3265.9,-106.3 3265.9,-237.4"
         style="fill:#e59f39;fill-opacity:1;fill-rule:nonzero;stroke:none"
         id="path120" /><path
         d="m 12977.1,5063.5 c 0,-90.8 -1204.1,-164.5 -2689.4,-164.5 -1485.34,0 -2689.43,73.7 -2689.43,164.5 0,90.9 1204.09,164.6 2689.43,164.6 1485.3,0 2689.4,-73.7 2689.4,-164.6"
         style="fill:#f7cc7f;fill-opacity:1;fill-rule:nonzero;stroke:none"
         id="path122" /><path
         d="m 29888.2,2516.8 v -779.6 c 0,-126.1 -1406.2,-228.3 -3140.7,-228.3 -1734.6,0 -3140.8,102.2 -3140.8,228.3 v 779.6 h 6281.5"
         style="fill:#e59f39;fill-opacity:1;fill-rule:nonzero;stroke:none"
         id="path124" /><path
         d="m 27615.3,1517.8 v 999 h 2272.9 v -779.6 c 0,-104.2 -960.4,-192.1 -2272.9,-219.4"
         style="fill:#eab054;fill-opacity:1;fill-rule:nonzero;stroke:none"
         id="path126" /><path
         d="m 27509.5,1515.7 c -244,-4.4 -499.2,-6.8 -762,-6.8 -391.6,0 -766.5,5.2 -1112.2,14.8 v 993.1 h 1874.2 V 1515.7"
         style="fill:#eab054;fill-opacity:1;fill-rule:nonzero;stroke:none"
         id="path128" /><path
         d="m 25509.4,1527.3 c -1119,35 -1902.7,115.8 -1902.7,209.9 v 779.6 h 1902.7 v -989.5"
         style="fill:#eab054;fill-opacity:1;fill-rule:nonzero;stroke:none"
         id="path130" /><path
         d="m 23606.7,2525.1 c 0,-126 1406.2,-228.2 3140.8,-228.2 1734.5,0 3140.7,102.2 3140.7,228.2 0,126.1 -1406.2,228.2 -3140.7,228.2 -1734.6,0 -3140.8,-102.1 -3140.8,-228.2"
         style="fill:#e59f39;fill-opacity:1;fill-rule:nonzero;stroke:none"
         id="path132" /><path
         d="m 24161.2,2525.1 c 0,-87.4 1157.9,-158.2 2586.3,-158.2 1428.3,0 2586.3,70.8 2586.3,158.2 0,87.4 -1158,158.2 -2586.3,158.2 -1428.4,0 -2586.3,-70.8 -2586.3,-158.2"
         style="fill:#f7cc7f;fill-opacity:1;fill-rule:nonzero;stroke:none"
         id="path134" /><path
         d="m 30425.5,3341.9 v -779.7 c 0,-126 -1406.1,-228.2 -3140.7,-228.2 -1734.6,0 -3140.7,102.2 -3140.7,228.2 v 779.7 h 6281.4"
         style="fill:#e59f39;fill-opacity:1;fill-rule:nonzero;stroke:none"
         id="path136" /><path
         d="m 28152.6,2342.8 v 999.1 h 2272.9 v -779.7 c 0,-104.2 -960.4,-192 -2272.9,-219.4"
         style="fill:#eab054;fill-opacity:1;fill-rule:nonzero;stroke:none"
         id="path138" /><path
         d="m 28046.9,2340.7 c -244,-4.4 -499.3,-6.7 -762.1,-6.7 -391.6,0 -766.5,5.2 -1112.2,14.7 v 993.2 h 1874.3 V 2340.7"
         style="fill:#eab054;fill-opacity:1;fill-rule:nonzero;stroke:none"
         id="path140" /><path
         d="m 26046.8,2352.4 c -1119,34.9 -1902.7,115.7 -1902.7,209.8 v 779.7 h 1902.7 v -989.5"
         style="fill:#eab054;fill-opacity:1;fill-rule:nonzero;stroke:none"
         id="path142" /><path
         d="m 24144.1,3350.2 c 0,-126.1 1406.1,-228.3 3140.7,-228.3 1734.6,0 3140.7,102.2 3140.7,228.3 0,126 -1406.1,228.2 -3140.7,228.2 -1734.6,0 -3140.7,-102.2 -3140.7,-228.2"
         style="fill:#e59f39;fill-opacity:1;fill-rule:nonzero;stroke:none"
         id="path144" /><path
         d="m 24698.5,3350.2 c 0,-87.4 1157.9,-158.3 2586.3,-158.3 1428.4,0 2586.3,70.9 2586.3,158.3 0,87.4 -1157.9,158.2 -2586.3,158.2 -1428.4,0 -2586.3,-70.8 -2586.3,-158.2"
         style="fill:#f7cc7f;fill-opacity:1;fill-rule:nonzero;stroke:none"
         id="path146" /><path
         d="m 30067.5,4188.9 v -779.7 c 0,-126.1 -1406.1,-228.2 -3140.7,-228.2 -1734.6,0 -3140.7,102.1 -3140.7,228.2 v 779.7 h 6281.4"
         style="fill:#e59f39;fill-opacity:1;fill-rule:nonzero;stroke:none"
         id="path148" /><path
         d="m 27794.6,3189.8 v 999.1 h 2272.9 v -779.7 c 0,-104.2 -960.4,-192.1 -2272.9,-219.4"
         style="fill:#eab054;fill-opacity:1;fill-rule:nonzero;stroke:none"
         id="path150" /><path
         d="m 27688.8,3187.7 c -243.9,-4.4 -499.2,-6.7 -762,-6.7 -391.6,0 -766.5,5.2 -1112.2,14.7 v 993.2 h 1874.2 V 3187.7"
         style="fill:#eab054;fill-opacity:1;fill-rule:nonzero;stroke:none"
         id="path152" /><path
         d="m 25688.8,3199.4 c -1119,34.9 -1902.7,115.7 -1902.7,209.8 v 779.7 h 1902.7 v -989.5"
         style="fill:#eab054;fill-opacity:1;fill-rule:nonzero;stroke:none"
         id="path154" /><path
         d="m 23786.1,4197.1 c 0,-126 1406.1,-228.2 3140.7,-228.2 1734.6,0 3140.7,102.2 3140.7,228.2 0,126.1 -1406.1,228.3 -3140.7,228.3 -1734.6,0 -3140.7,-102.2 -3140.7,-228.3"
         style="fill:#e59f39;fill-opacity:1;fill-rule:nonzero;stroke:none"
         id="path156" /><path
         d="m 24340.5,4197.1 c 0,-87.3 1157.9,-158.2 2586.3,-158.2 1428.4,0 2586.3,70.9 2586.3,158.2 0,87.4 -1157.9,158.3 -2586.3,158.3 -1428.4,0 -2586.3,-70.9 -2586.3,-158.3"
         style="fill:#f7cc7f;fill-opacity:1;fill-rule:nonzero;stroke:none"
         id="path158" /><path
         d="m 30425.5,5024.2 v -779.6 c 0,-126.1 -1406.1,-228.3 -3140.7,-228.3 -1734.6,0 -3140.7,102.2 -3140.7,228.3 v 779.6 h 6281.4"
         style="fill:#e59f39;fill-opacity:1;fill-rule:nonzero;stroke:none"
         id="path160" /><path
         d="m 28152.6,4025.2 v 999 h 2272.9 v -779.6 c 0,-104.2 -960.4,-192.1 -2272.9,-219.4"
         style="fill:#eab054;fill-opacity:1;fill-rule:nonzero;stroke:none"
         id="path162" /><path
         d="m 28046.9,4023.1 c -244,-4.4 -499.3,-6.8 -762.1,-6.8 -391.6,0 -766.5,5.2 -1112.2,14.8 v 993.1 h 1874.3 V 4023.1"
         style="fill:#eab054;fill-opacity:1;fill-rule:nonzero;stroke:none"
         id="path164" /><path
         d="m 26046.8,4034.7 c -1119,35 -1902.7,115.8 -1902.7,209.9 v 779.6 h 1902.7 v -989.5"
         style="fill:#eab054;fill-opacity:1;fill-rule:nonzero;stroke:none"
         id="path166" /><path
         d="m 24144.1,5032.5 c 0,-126 1406.1,-228.2 3140.7,-228.2 1734.6,0 3140.7,102.2 3140.7,228.2 0,126.1 -1406.1,228.2 -3140.7,228.2 -1734.6,0 -3140.7,-102.1 -3140.7,-228.2"
         style="fill:#e59f39;fill-opacity:1;fill-rule:nonzero;stroke:none"
         id="path168" /><path
         d="m 24698.5,5032.5 c 0,-87.4 1157.9,-158.2 2586.3,-158.2 1428.4,0 2586.3,70.8 2586.3,158.2 0,87.4 -1157.9,158.3 -2586.3,158.3 -1428.4,0 -2586.3,-70.9 -2586.3,-158.3"
         style="fill:#f7cc7f;fill-opacity:1;fill-rule:nonzero;stroke:none"
         id="path170" /><path
         d="M 31886.8,5971.7 31698.2,5313 c -30.5,-106.5 -1243.1,147.5 -2708.5,567.2 -1465.3,419.7 -2628.5,846.3 -2598,952.8 l 188.7,658.6 5306.4,-1519.9"
         style="fill:#e59f39;fill-opacity:1;fill-rule:nonzero;stroke:none"
         id="path172" /><path
         d="m 29725,5677.7 241.7,844 1920.1,-550 -188.6,-658.7 c -25.2,-88 -857.8,70.2 -1973.2,364.7"
         style="fill:#eab054;fill-opacity:1;fill-rule:nonzero;stroke:none"
         id="path174" /><path
         d="m 29635.1,5701.5 c -207.2,55.3 -423.4,115.1 -645.4,178.7 -330.8,94.8 -646.2,189.9 -936,281.6 l 240.3,839 1583.4,-453.5 -242.3,-845.8"
         style="fill:#eab054;fill-opacity:1;fill-rule:nonzero;stroke:none"
         id="path176" /><path
         d="m 27948.3,6195.3 c -936.9,300.3 -1579.4,558.2 -1556.6,637.7 l 188.7,658.6 1607.3,-460.4 -239.4,-835.9"
         style="fill:#eab054;fill-opacity:1;fill-rule:nonzero;stroke:none"
         id="path178" /><path
         d="m 26582.4,7498.6 c -30.5,-106.4 1132.6,-533 2598,-952.7 1465.3,-419.8 2677.9,-673.7 2708.4,-567.2 30.5,106.5 -1132.6,533 -2598,952.8 -1465.3,419.7 -2677.9,673.6 -2708.4,567.1"
         style="fill:#e59f39;fill-opacity:1;fill-rule:nonzero;stroke:none"
         id="path180" /><path
         d="m 27050.7,7364.5 c -21.1,-73.8 939.9,-413.9 2146.6,-759.5 1206.7,-345.7 2202,-566 2223.2,-492.2 21.1,73.9 -939.9,413.9 -2146.6,759.5 -1206.7,345.7 -2202,566 -2223.2,492.2"
         style="fill:#f7cc7f;fill-opacity:1;fill-rule:nonzero;stroke:none"
         id="path182" /><path
         d="m 30170.8,10505 200.9,-655.1 c 32.5,-105.9 -1122.6,-554 -2579.9,-1000.9 -1457.2,-446.9 -2664.9,-723.4 -2697.4,-617.5 l -200.9,655 5277.3,1618.5"
         style="fill:#e59f39;fill-opacity:1;fill-rule:nonzero;stroke:none"
         id="path184" /><path
         d="m 28518.7,9080 -257.4,839.4 1909.5,585.6 200.9,-655.1 c 26.8,-87.5 -757.4,-408.8 -1853,-769.9"
         style="fill:#eab054;fill-opacity:1;fill-rule:nonzero;stroke:none"
         id="path186" /><path
         d="m 28430.3,9051 c -203.8,-66.6 -417.7,-134.3 -638.5,-202 -329,-100.9 -645.2,-193.1 -938.1,-274.2 l -255.9,834.4 1574.6,482.9 257.9,-841.1"
         style="fill:#eab054;fill-opacity:1;fill-rule:nonzero;stroke:none"
         id="path188" /><path
         d="m 26747,8545.5 c -949.1,-259 -1628.4,-393 -1652.6,-314 l -200.9,655 1598.5,490.3 255,-831.3"
         style="fill:#eab054;fill-opacity:1;fill-rule:nonzero;stroke:none"
         id="path190" /><path
         d="m 24891.4,8893.5 c 32.5,-105.9 1240.1,170.6 2697.4,617.5 1457.3,446.9 2612.3,895 2579.9,1000.9 -32.5,105.9 -1240.2,-170.5 -2697.5,-617.4 -1457.3,-447 -2612.3,-895.1 -2579.8,-1001"
         style="fill:#e59f39;fill-opacity:1;fill-rule:nonzero;stroke:none"
         id="path192" /><path
         d="m 25357.2,9036.3 c 22.5,-73.4 1013.6,165.4 2213.6,533.5 1200,368 2154.6,725.9 2132.1,799.3 -22.5,73.4 -1013.6,-165.4 -2213.6,-533.4 -1200.1,-368.1 -2154.7,-725.9 -2132.1,-799.4"
         style="fill:#f7cc7f;fill-opacity:1;fill-rule:nonzero;stroke:none"
         id="path194" /><path
         d="m 12950.7,2355.2 77.7,-412.8 c 4.3,-53.6 2.7,-189.3 14.3,-236.2 43.6,-176.2 784.5,252 590.1,286.4 -17.6,3.1 -145.1,132.1 -174.3,186.7 -50.8,95.1 -97.5,272.2 -97.5,272.2 l -410.3,-96.3"
         style="fill:#f7a491;fill-opacity:1;fill-rule:nonzero;stroke:none"
         id="path196" /><path
         d="m 13596,2018.3 c 0,0 -191.2,-47.4 -288.6,-57.1 -97.3,-9.7 -222.2,141.5 -292,112.9 -76.9,-31.5 -118.7,-511.2 -118.7,-511.2 0,0 1222.1,-55.7 1510.9,24.1 114.5,31.6 -431.3,285.6 -811.6,431.3"
         style="fill:#f47458;fill-opacity:1;fill-rule:nonzero;stroke:none"
         id="path198" /><path
         d="m 14654.7,2374 77.7,-412.8 c 4.4,-53.7 2.7,-189.3 14.3,-236.2 43.6,-176.2 770.9,223.8 576.5,258.2 -17.6,3.1 -131.4,160.3 -160.6,214.9 -50.8,95.1 -97.5,272.2 -97.5,272.2 l -410.4,-96.3"
         style="fill:#f7a491;fill-opacity:1;fill-rule:nonzero;stroke:none"
         id="path200" /><path
         d="m 15281.3,2018.3 c 0,0 -191.3,-47.4 -288.6,-57.1 -97.3,-9.7 -222.2,141.5 -292,112.9 -76.9,-31.5 -118.7,-511.2 -118.7,-511.2 0,0 1222.1,-55.7 1510.9,24.1 114.5,31.6 -431.3,285.6 -811.6,431.3"
         style="fill:#f47458;fill-opacity:1;fill-rule:nonzero;stroke:none"
         id="path202" /><path
         d="m 10417.4,6497.7 2223.3,515.7 c 0,0 997,263.6 1237.7,-45.8 240.7,-309.4 1262.7,-4579.9 1262.7,-4579.9 0,0 -527.2,-45.8 -561.6,-22.9 l -1234,2190.3 c -117.4,208.3 -194.6,436.9 -227.6,673.7 l -87.6,627.2 -905.3,-263.6 c 0,0 -1042.9,-229.2 -1466.9,34.3 -424.1,263.6 -240.7,871 -240.7,871"
         style="fill:#0e2e35;fill-opacity:1;fill-rule:nonzero;stroke:none"
         id="path204" /><path
         d="m 11271.2,10330.7 c 35.1,-1.4 131.3,-33.5 272.1,-298.6 179.7,-338.4 442.3,-1360.9 442.3,-1360.9 l -784,-290.9 -100.7,213.4 -165.9,1642.9 c 0,0 326.5,94.5 336.2,94.1"
         style="fill:#eab054;fill-opacity:1;fill-rule:nonzero;stroke:none"
         id="path206" /><path
         d="m 10234.9,10478.1 c 224.2,-0.3 778.8,-65.5 1036.3,-147.5 0,0 189.1,-1620 -170.3,-2851 -80.4,-275.6 66.6,-1142.3 66.6,-1142.3 l -2323.04,30.5 c 0,0 275.2,2095.4 171.53,2433.9 -103.68,338.4 -106.15,1518 -106.15,1518 0,0 15.92,2.5 521.92,89.7 236.02,40.6 563.77,69 803.14,68.7"
         style="fill:#f7cc7f;fill-opacity:1;fill-rule:nonzero;stroke:none"
         id="path208" /><path
         d="m 8884.56,10139.7 c 217.2,81.2 323.45,-1869.2 352.73,-2672 384.62,-36.8 1055.01,-0.2 1222.01,12.3 78.5,5.8 259.5,71.9 337.6,82.1 80,10.4 152.5,15.9 191.8,9.1 14.5,-2.5 415.4,-165.9 449.7,-201.8 42.5,-44.4 157.5,-156.5 138.1,-205 -19.4,-48.5 -221.1,135.1 -221.1,135.1 l -98.6,55.1 c 122.7,-119.5 356.8,-276.9 323.1,-334.2 -32.9,-55.9 -244.1,103.8 -394.6,212.7 129.1,-116.2 289.5,-324.2 252.5,-356.6 -33.2,-29.1 -215.6,211.6 -410.6,281 -72.2,25.7 -144.2,-45.5 -201.1,-54.1 -41.7,-6.3 -106.2,-19.7 -147.2,-8.2 l -195.8,18.9 c -71.9,-6.5 -89,-8.1 -161.6,-23.5 -84.3,-17.9 -222.6,-36.7 -329.98,-62.8 -618.22,-150.6 -824.42,-220.5 -1013.7,-220.4 -573.33,0.4 -606.58,3140.4 -93.26,3332.3"
         style="fill:#f7a491;fill-opacity:1;fill-rule:nonzero;stroke:none"
         id="path210" /><path
         d="m 8472.37,8308.6 c -40.69,822.3 -34.73,1835.8 427.79,2008.7 182.49,68.3 504.22,-342 446.35,-2025.4 -246.91,-20.3 -609.41,-36.7 -874.14,16.7"
         style="fill:#eab054;fill-opacity:1;fill-rule:nonzero;stroke:none"
         id="path212" /><path
         d="m 13624,8811.1 -2188.6,-142.9 c -57.9,-3.8 -107.8,-42.2 -126.2,-97.2 l -566.6,-1687.6 -1206.56,-78.8 c -33.75,-2.3 -59.31,-31.4 -57.11,-65.1 2.2,-33.7 31.34,-59.2 65.08,-57 l 3434.09,224.3 c 94.4,6.1 176.4,67.2 209.4,155.8 l 579.8,1555.9 c 36.2,97.2 -39.8,199.4 -143.3,192.6"
         style="fill:#f47458;fill-opacity:1;fill-rule:nonzero;stroke:none"
         id="path214" /><path
         d="m 12533.5,7768.3 c -4.4,-75.3 -61.4,-133.3 -127.3,-129.5 -66,3.8 -115.9,67.9 -111.6,143.3 4.4,75.3 61.4,133.3 127.3,129.5 66,-3.8 115.9,-68 111.6,-143.3"
         style="fill:#ffffff;fill-opacity:1;fill-rule:nonzero;stroke:none"
         id="path216" /><path
         d="M 8845.83,6420.7 11268.6,6839 c 0,0 1047.5,159.6 1288.2,-149.8 240.6,-309.4 939.7,-4320.5 939.7,-4320.5 0,0 -527.2,-45.9 -561.5,-22.9 -26.7,17.7 -664.9,1354.9 -951.6,1957.4 -91,191.3 -154.9,394.1 -190.2,602.9 l -92.1,545.9 -304.9,-104.9 c -535.7,-184.5 -1106.6,-248.5 -1668.9,-178.6 -235.42,29.2 -455.13,79.5 -591.43,164.2 -424.03,263.6 -290.04,1088 -290.04,1088"
         style="fill:#184655;fill-opacity:1;fill-rule:nonzero;stroke:none"
         id="path218" /><path
         d="m 10326.3,10773.7 47.2,-349.9 c 0,0 105.6,-504 -30.3,-601.2 -135.9,-97.2 -577.97,615.6 -577.97,615.6 l 46.69,886.5 514.38,-551"
         style="fill:#f7a491;fill-opacity:1;fill-rule:nonzero;stroke:none"
         id="path220" /><path
         d="m 9796.84,11037.4 c 112.26,-302.4 379.66,-488.3 569.46,-560.3 l -40,296.6 -514.38,551 -15.08,-287.3"
         style="fill:#f47458;fill-opacity:1;fill-rule:nonzero;stroke:none"
         id="path222" /><path
         d="m 10298.4,12289.4 c 288,46.3 546.2,-184.5 539.1,-471.8 -3.2,-124.9 -13.4,-280.8 -39.5,-448.7 -62.6,-403.9 -339.1,-759.5 -521.9,-727.8 -182.8,31.8 -642.78,380.2 -561.79,954.9 50.01,354.8 281.86,644.8 584.09,693.4"
         style="fill:#f7a491;fill-opacity:1;fill-rule:nonzero;stroke:none"
         id="path224" /><path
         d="m 9841.16,11527.4 c -15.42,-88.8 -86.8,-150.6 -159.42,-138 -72.62,12.6 -119,94.9 -103.57,183.7 15.43,88.8 86.81,150.6 159.43,137.9 72.62,-12.6 118.99,-94.8 103.56,-183.6"
         style="fill:#f7a491;fill-opacity:1;fill-rule:nonzero;stroke:none"
         id="path226" /><path
         d="m 9737.6,11711 c 0,0 221.03,-54.7 303.1,87 82,141.7 375.3,447.4 748.2,320.6 372.8,-126.7 -328.2,308.3 -358,308.3 -29.8,0 -387.8,2.5 -387.8,2.5 0,0 -275.86,-226.2 -285.81,-251.1 -9.94,-24.9 -89.48,-295.8 -89.48,-295.8 l 69.79,-171.5"
         style="fill:#0e2e35;fill-opacity:1;fill-rule:nonzero;stroke:none"
         id="path228" /><path
         d="m 20568.6,1544.5 h 5502.1 V 3547 H 20568.6 V 1544.5"
         style="fill:#50bfa5;fill-opacity:1;fill-rule:nonzero;stroke:none"
         id="path230" /><path
         d="m 20568.6,2997.5 h 5502.1 v 257.7 h -5502.1 v -257.7"
         style="fill:#96d9c9;fill-opacity:1;fill-rule:nonzero;stroke:none"
         id="path232" /><path
         d="m 20568.6,2494.3 h 5502.1 V 2752 h -5502.1 v -257.7"
         style="fill:#96d9c9;fill-opacity:1;fill-rule:nonzero;stroke:none"
         id="path234" /><path
         d="m 20568.6,1991.1 h 5502.1 v 257.6 h -5502.1 v -257.6"
         style="fill:#96d9c9;fill-opacity:1;fill-rule:nonzero;stroke:none"
         id="path236" /><path
         d="m 20568.6,1544.5 h 5502.1 v 257.6 h -5502.1 v -257.6"
         style="fill:#96d9c9;fill-opacity:1;fill-rule:nonzero;stroke:none"
         id="path238" /><path
         d="m 22616.8,1544.5 h 1144.3 V 3547 H 22616.8 V 1544.5"
         style="fill:#f7cc7f;fill-opacity:1;fill-rule:nonzero;stroke:none"
         id="path240" /><path
         d="m 26003.9,1544.5 h 830.9 V 3547 h -830.9 V 1544.5"
         style="fill:#3c8f7c;fill-opacity:1;fill-rule:nonzero;stroke:none"
         id="path242" /><path
         d="M 32185.3,1572.9 H 1781.31 V 1399.5 H 32185.3 v 173.4"
         style="fill:#0e2e35;fill-opacity:1;fill-rule:nonzero;stroke:none"
         id="path244" /><path
         d="m 14695.8,16608.4 h -4425.3 c -2.1,21.7 -3.2,43.7 -3.2,65.9 0,375.6 304.4,680 679.9,680 120,0 232.7,-31.2 330.6,-85.8 138.2,380.7 503.1,652.6 931.6,652.6 360.1,0 675.3,-192.1 848.8,-479.4 75.5,23.5 155.9,36.2 239.2,36.2 322.3,0 600.2,-189.7 728.3,-463.6 44,11.5 90.2,17.6 137.9,17.6 259.4,0 476.5,-181 532.2,-423.5"
         style="fill:#fbfefe;fill-opacity:1;fill-rule:nonzero;stroke:none"
         id="path246" /><path
         d="m 16690,13909.7 h -3348.9 c -1.6,16.4 -2.5,33.1 -2.5,49.9 0,284.2 230.4,514.6 514.6,514.6 90.8,0 176.1,-23.6 250.1,-64.9 104.7,288 380.8,493.8 705,493.8 272.5,0 511.1,-145.4 642.4,-362.8 57.2,17.8 118,27.4 181,27.4 243.9,0 454.3,-143.6 551.2,-350.8 33.3,8.7 68.3,13.3 104.3,13.3 196.4,0 360.6,-137 402.8,-320.5"
         style="fill:#fbfefe;fill-opacity:1;fill-rule:nonzero;stroke:none"
         id="path248" /><path
         d="M 10284.8,14289 H 7364.53 c 36.77,160.1 180.01,279.5 351.24,279.5 31.43,0 61.91,-4 90.99,-11.6 84.5,180.7 267.9,306 480.58,306 54.98,0 108.01,-8.4 157.88,-24 114.49,189.6 322.5,316.4 560.13,316.4 282.72,0 523.51,-179.4 614.76,-430.6 64.58,36 138.93,56.6 218.13,56.6 247.76,0 448.66,-200.9 448.66,-448.7 0,-14.7 -0.7,-29.2 -2.1,-43.6"
         style="fill:#fbfefe;fill-opacity:1;fill-rule:nonzero;stroke:none"
         id="path250" /><path
         d="m 13546.8,12004.7 39,-474.5 275.6,310.4 891.3,730 -760.1,-239.5 c 0,0 -374.2,-181.8 -391.4,-205.8 -17.2,-24 -54.4,-120.6 -54.4,-120.6"
         style="fill:#50bfa5;fill-opacity:1;fill-rule:nonzero;stroke:none"
         id="path252" /><path
         d="m 13142.9,12208.5 1609.8,362.1 -1205.9,-565.9 z"
         style="fill:#96d9c9;fill-opacity:1;fill-rule:nonzero;stroke:none"
         id="path254" /><path
         d="m 14165.9,11653.3 -496.2,247.6 1083,669.7 z"
         style="fill:#96d9c9;fill-opacity:1;fill-rule:nonzero;stroke:none"
         id="path256" /><path
         d="m 13358.8,11741.2 c 74.4,28 129.2,34 129.7,34.1 l -3.6,34.5 c -2.4,-0.3 -59.8,-6.6 -138.3,-36.1 l 12.2,-32.5"
         style="fill:#3c8f7c;fill-opacity:1;fill-rule:nonzero;stroke:none"
         id="path258" /><path
         d="m 12968.5,11412 c 34.9,85.4 85.6,159.8 150.5,221.2 l 23.9,-25.2 c -61.4,-58 -109.3,-128.3 -142.3,-209.1 z m -43.6,-523.9 c -13.8,93.5 -18.2,182 -13.1,263.3 l 34.6,-2.2 c -4.9,-78.8 -0.6,-165 12.8,-256 l 0.3,-2 -34.4,-4.7 z m 38.8,-261.2 34.3,4.9 c 14.6,-101.5 24.9,-184.4 32.7,-261 l -34.5,-3.5 c -7.7,76.1 -18,158.6 -32.5,259.6 z m 49.4,-519.9 34.6,0.8 c 2.2,-94.2 -0.6,-180.6 -8.5,-264.1 l -34.5,3.3 c 7.7,82.1 10.5,167.2 8.4,260 z M 12873,9348.4 c 17,35.7 32.6,72.9 46.5,110.6 15.7,42.6 29.6,87.2 41.3,132.5 l 33.5,-8.6 c -11.9,-46.4 -26.2,-92.1 -42.3,-135.9 -14.2,-38.7 -30.3,-76.9 -47.7,-113.5 z m -308.6,-411.6 c 65.2,59.6 123.9,123.8 174.5,190.8 l 27.7,-20.8 c -51.9,-68.8 -112,-134.6 -178.9,-195.6 l -23.3,25.6"
         style="fill:#3c8f7c;fill-opacity:1;fill-rule:nonzero;stroke:none"
         id="path260" /></g></g></svg>
