<svg width="819" height="600" viewBox="0 0 819 600" fill="none" xmlns="http://www.w3.org/2000/svg">
<path fill-rule="evenodd" clip-rule="evenodd" d="M150 358C232.843 358 300 290.843 300 208C300 125.157 232.843 58 150 58C67.1573 58 0 125.157 0 208C0 290.843 67.1573 358 150 358ZM150 283C191.421 283 225 249.421 225 208C225 166.579 191.421 133 150 133C108.579 133 75 166.579 75 208C75 249.421 108.579 283 150 283Z" fill="#E9ED36" fill-opacity="0.45"/>
<path fill-rule="evenodd" clip-rule="evenodd" d="M357 600C439.843 600 507 532.843 507 450C507 367.157 439.843 300 357 300C274.157 300 207 367.157 207 450C207 532.843 274.157 600 357 600ZM357 525C398.421 525 432 491.421 432 450C432 408.579 398.421 375 357 375C315.579 375 282 408.579 282 450C282 491.421 315.579 525 357 525Z" fill="#00C14D" fill-opacity="0.46"/>
<path fill-rule="evenodd" clip-rule="evenodd" d="M462 300C544.843 300 612 232.843 612 150C612 67.1573 544.843 0 462 0C379.157 0 312 67.1573 312 150C312 232.843 379.157 300 462 300ZM462 225C503.421 225 537 191.421 537 150C537 108.579 503.421 75 462 75C420.579 75 387 108.579 387 150C387 191.421 420.579 225 462 225Z" fill="#0057FF" fill-opacity="0.44"/>
<path fill-rule="evenodd" clip-rule="evenodd" d="M669 546C751.843 546 819 478.843 819 396C819 313.157 751.843 246 669 246C586.157 246 519 313.157 519 396C519 478.843 586.157 546 669 546ZM669 471C710.421 471 744 437.421 744 396C744 354.579 710.421 321 669 321C627.579 321 594 354.579 594 396C594 437.421 627.579 471 669 471Z" fill="#ED3678" fill-opacity="0.46"/>
</svg>
