<svg width="819" height="600" viewBox="0 0 819 600" fill="none" xmlns="http://www.w3.org/2000/svg">
<path fill-rule="evenodd" clip-rule="evenodd" d="M150 358C232.843 358 300 290.843 300 208C300 125.157 232.843 58 150 58C67.1573 58 0 125.157 0 208C0 290.843 67.1573 358 150 358ZM150 308C205.228 308 250 263.228 250 208C250 152.772 205.228 108 150 108C94.7715 108 50 152.772 50 208C50 263.228 94.7715 308 150 308Z" fill="#E9ED36" fill-opacity="0.45"/>
<path fill-rule="evenodd" clip-rule="evenodd" d="M357 600C439.843 600 507 532.843 507 450C507 367.157 439.843 300 357 300C274.157 300 207 367.157 207 450C207 532.843 274.157 600 357 600ZM357 550C412.228 550 457 505.228 457 450C457 394.772 412.228 350 357 350C301.772 350 257 394.772 257 450C257 505.228 301.772 550 357 550Z" fill="#00C14D" fill-opacity="0.46"/>
<path fill-rule="evenodd" clip-rule="evenodd" d="M462 300C544.843 300 612 232.843 612 150C612 67.1573 544.843 0 462 0C379.157 0 312 67.1573 312 150C312 232.843 379.157 300 462 300ZM462 250C517.228 250 562 205.228 562 150C562 94.7715 517.228 50 462 50C406.772 50 362 94.7715 362 150C362 205.228 406.772 250 462 250Z" fill="#0057FF" fill-opacity="0.44"/>
<path fill-rule="evenodd" clip-rule="evenodd" d="M669 546C751.843 546 819 478.843 819 396C819 313.157 751.843 246 669 246C586.157 246 519 313.157 519 396C519 478.843 586.157 546 669 546ZM669 496C724.228 496 769 451.228 769 396C769 340.772 724.228 296 669 296C613.772 296 569 340.772 569 396C569 451.228 613.772 496 669 496Z" fill="#ED3678" fill-opacity="0.46"/>
</svg>
