?xml version="1.0" standalone="no"?>
<!DOCTYPE svg PUBLIC "-//W3C//DTD SVG 20010904//EN"
 "http://www.w3.org/TR/2001/REC-SVG-20010904/DTD/svg10.dtd">
<svg version="1.0" xmlns="http://www.w3.org/2000/svg"
 width="5250.000000pt" height="3000.000000pt" viewBox="0 0 5250.000000 3000.000000"
 preserveAspectRatio="xMidYMid meet">

<g transform="translate(0.000000,3000.000000) scale(0.100000,-0.100000)"
fill="#000000" stroke="none">
<path d="M31396 28165 c-102 -28 -178 -75 -267 -164 -94 -95 -148 -178 -204
-317 -20 -49 -51 -116 -69 -149 -50 -89 -101 -219 -122 -310 -29 -125 -25
-346 9 -491 59 -257 181 -418 398 -528 47 -24 107 -60 134 -80 78 -60 123 -79
201 -84 l72 -4 -59 118 c-57 117 -112 269 -185 514 -31 104 -37 141 -38 220
-1 104 12 138 62 164 22 12 30 9 91 -32 122 -83 273 -138 471 -174 91 -16 159
-21 331 -22 l216 -1 43 39 c52 47 96 66 153 66 138 0 172 -187 65 -353 l-32
-49 55 -52 c30 -28 71 -63 91 -78 61 -46 115 -139 154 -267 20 -64 50 -159 67
-211 l31 -95 8 70 c13 110 50 249 139 525 71 220 88 262 126 314 60 82 148
263 177 368 78 274 45 522 -87 665 -103 112 -153 127 -552 163 -571 51 -753
84 -975 175 -58 23 -137 50 -177 59 -87 19 -258 20 -327 1z m1079 -230 c72 -8
254 -26 405 -40 293 -27 370 -41 435 -80 54 -31 118 -101 149 -164 91 -178 69
-470 -53 -723 -41 -84 -85 -152 -76 -118 109 448 95 615 -66 764 -111 103
-252 161 -759 311 -218 65 -272 84 -200 72 19 -4 94 -13 165 -22z m-1628 -537
c-16 -93 -13 -382 7 -483 47 -249 130 -447 259 -624 l40 -54 -41 23 c-161 91
-275 249 -327 452 -51 204 -52 385 -1 558 22 77 62 180 70 180 2 0 -1 -24 -7
-52z"/>
<path d="M33365 25790 c-27 -5 -96 -19 -153 -31 -86 -19 -102 -25 -96 -38 17
-36 16 -196 -1 -261 -40 -156 -135 -295 -259 -378 -90 -60 -163 -89 -277 -110
-98 -17 -147 -12 -186 23 -27 22 -28 28 -27 107 0 53 10 125 27 199 32 139 35
184 10 175 -36 -14 -177 -103 -244 -154 -38 -29 -609 -370 -1267 -758 -658
-388 -1203 -713 -1210 -722 -46 -61 -68 -308 -38 -435 27 -116 116 -263 197
-328 l41 -32 104 27 c57 14 110 29 117 32 8 3 -8 -18 -34 -46 -27 -29 -68 -82
-93 -118 l-44 -66 68 -136 c163 -327 262 -658 305 -1025 20 -171 20 -510 -1
-683 -8 -74 -14 -138 -12 -144 8 -22 177 130 468 422 360 360 426 420 625 571
83 63 239 185 349 271 346 274 516 384 652 424 l50 14 23 73 c43 133 38 128
68 77 41 -70 120 -164 176 -210 63 -51 170 -105 243 -121 30 -7 54 -17 54 -22
0 -6 -37 -80 -82 -165 -96 -182 -121 -205 -293 -277 -59 -25 -144 -66 -188
-90 -43 -25 -81 -45 -83 -45 -8 0 -417 -248 -804 -488 -217 -135 -520 -322
-672 -416 -319 -196 -302 -178 -342 -363 -14 -62 -41 -152 -61 -200 -20 -49
-37 -92 -37 -98 -1 -5 151 -579 336 -1274 186 -695 336 -1265 334 -1266 -2 -2
-163 -46 -357 -99 -344 -92 -355 -96 -392 -132 -42 -41 -58 -89 -40 -122 6
-11 27 -28 48 -38 36 -18 67 -19 603 -16 310 2 566 5 568 7 6 6 -18 305 -30
364 -13 70 -51 111 -101 111 -32 0 -35 3 -40 38 -34 218 -41 599 -20 1015 7
131 16 564 19 962 4 399 9 725 10 725 2 0 63 -50 136 -111 183 -153 399 -314
613 -456 398 -265 671 -396 913 -438 47 -8 87 -16 88 -18 2 -2 48 -219 103
-482 243 -1169 239 -1151 310 -1300 91 -191 166 -299 492 -710 113 -143 244
-312 291 -375 125 -169 1949 -2886 1952 -2907 0 -6 -55 -84 -124 -172 -124
-159 -126 -161 -180 -176 -113 -32 -141 -46 -171 -88 -31 -42 -37 -90 -16
-118 26 -34 54 -39 239 -39 l183 0 286 218 c157 119 302 231 322 247 l36 30
-124 140 c-123 139 -180 185 -231 185 -20 0 -33 18 -83 118 -114 227 -185 414
-251 662 -94 353 -503 1585 -830 2500 -56 157 -130 368 -165 470 -81 239 -125
350 -191 485 -30 61 -54 124 -54 141 0 50 55 476 120 929 100 702 132 991 146
1330 7 166 -8 521 -30 725 l-13 115 25 44 25 43 -17 117 c-45 300 -116 603
-263 1111 -266 924 -345 1248 -423 1745 -76 485 -115 639 -215 840 -116 235
-270 375 -490 445 -56 18 -99 23 -220 26 -82 1 -172 -1 -200 -6z m-1440 -2232
c9 -73 48 -320 86 -548 70 -421 75 -460 61 -460 -4 0 -144 65 -310 145 -410
196 -999 471 -1097 511 -46 19 -73 35 -65 38 8 3 98 31 200 61 359 109 865
286 1044 365 23 10 46 19 52 19 7 1 18 -49 29 -131z"/>
<path d="M30394 16669 c11 -30 87 -293 136 -469 28 -102 91 -324 140 -495 48
-170 133 -470 188 -665 158 -556 625 -2200 1147 -4035 186 -655 336 -1181 509
-1790 99 -348 625 -2197 721 -2535 24 -85 130 -456 235 -825 l190 -669 0 -206
c0 -581 -95 -2406 -156 -3015 -63 -630 -174 -978 -336 -1058 -31 -16 -20 -17
225 -17 291 0 309 4 352 69 21 32 32 95 95 566 39 292 85 634 101 760 49 380
248 1884 261 1970 l12 80 97 108 c54 60 96 114 94 120 -3 7 -24 84 -49 172
-25 88 -192 675 -371 1305 -179 630 -382 1341 -450 1580 -68 239 -279 982
-470 1650 -190 668 -477 1674 -637 2235 -159 561 -406 1427 -548 1925 -142
498 -392 1375 -555 1950 -164 575 -301 1053 -307 1063 -5 9 -14 17 -21 17 -7
0 -33 10 -58 22 -24 11 -56 21 -71 22 -14 1 -24 4 -22 7 2 3 -15 14 -38 22
-31 13 -45 14 -55 5 -10 -8 -12 -7 -8 4 7 17 -38 34 -57 22 -6 -4 -8 -3 -5 3
4 6 -48 30 -131 58 -75 27 -143 50 -150 53 -7 2 -10 -2 -8 -9z"/>
<path d="M26900 16244 c-30 -2 -140 -8 -245 -14 -688 -40 -1449 -164 -2114
-346 -156 -43 -501 -152 -501 -158 0 -6 250 -670 254 -673 2 -3 62 14 133 37
618 198 1355 339 2123 406 249 21 968 30 1223 15 848 -52 1660 -222 2275 -478
73 -30 135 -53 136 -51 13 16 327 641 324 644 -30 29 -446 189 -687 263 -270
83 -828 216 -986 235 -16 2 -106 16 -200 30 -426 63 -744 86 -1260 90 -231 2
-445 2 -475 0z"/>
<path d="M31880 16041 c0 -6 102 -367 226 -803 124 -436 309 -1089 412 -1450
l186 -658 1213 0 1213 0 -32 50 -33 50 -975 0 c-1054 0 -1029 -1 -1140 53 -24
12 -74 52 -111 89 -83 84 -131 178 -193 383 -69 231 -449 1566 -596 2095 -18
63 -37 121 -43 128 -15 19 -127 74 -127 63z"/>
<path d="M15719 14266 c-178 -32 -344 -92 -637 -230 -99 -47 -221 -103 -269
-125 -341 -150 -703 -180 -1453 -120 -370 30 -875 37 -1051 14 -230 -29 -396
-81 -584 -183 -184 -99 -370 -292 -465 -482 -22 -45 -64 -98 -134 -170 -249
-259 -377 -558 -393 -920 -13 -291 44 -548 186 -845 101 -210 218 -388 389
-588 l75 -88 -205 -207 c-337 -342 -729 -791 -947 -1086 -52 -71 -52 -77 21
-228 l51 -107 -51 -223 c-129 -557 -206 -1155 -268 -2071 -3 -53 -9 -99 -13
-100 -8 -5 -159 6 -631 43 -1212 96 -2029 146 -2600 160 -391 10 -530 22 -777
71 -51 10 -52 11 -46 39 13 68 -22 110 -162 197 -49 31 -116 73 -147 95 l-57
38 -24 -42 c-42 -73 -228 -422 -367 -687 -147 -280 -160 -320 -123 -391 26
-51 63 -60 118 -31 40 21 230 216 466 478 41 46 80 83 86 83 11 0 1594 -539
2763 -940 914 -314 1718 -600 1987 -706 186 -74 317 -100 438 -88 230 22 359
113 448 317 42 95 324 776 341 821 6 17 15 8 59 -54 29 -41 125 -172 215 -292
l163 -218 -69 -97 c-38 -54 -114 -172 -168 -263 -53 -91 -193 -322 -309 -515
-584 -966 -1139 -1924 -1298 -2241 -124 -248 -224 -409 -396 -637 l-96 -128
-52 7 c-64 8 -97 -10 -120 -64 -13 -32 -57 -401 -49 -410 5 -5 724 -22 931
-22 164 0 196 3 231 19 81 37 107 105 58 154 -35 35 -121 63 -651 212 l-51 15
601 593 c1120 1103 1908 1874 2287 2237 451 431 575 547 647 599 133 96 215
205 248 332 30 112 25 139 -151 749 -58 201 -129 446 -159 545 -29 99 -86 288
-125 420 -39 132 -130 431 -201 664 -72 233 -127 427 -122 430 4 4 34 27 66
51 36 27 56 48 53 57 -10 26 41 303 59 321 2 2 41 -6 86 -17 165 -42 324 -21
487 64 48 24 88 40 90 35 5 -14 36 -13 138 6 65 12 138 16 274 15 216 -3 356
10 498 44 l103 25 22 -26 22 -26 65 17 c115 29 207 81 291 164 110 110 184
249 204 381 6 42 2 56 -59 179 l-66 133 38 51 c66 90 174 268 233 384 79 155
132 298 184 492 24 91 56 193 70 226 80 179 261 383 490 551 l40 29 -20 -30
c-140 -216 -262 -540 -299 -798 -8 -56 -20 -169 -26 -252 -30 -420 -69 -560
-211 -751 -57 -78 -172 -190 -277 -271 -89 -69 -89 -70 -75 -96 7 -15 17 -27
22 -27 16 0 147 105 230 185 144 137 241 273 290 405 46 125 68 266 101 655
23 263 81 477 195 710 121 249 223 383 398 522 351 279 547 539 646 856 130
421 8 705 -366 846 l-95 36 -4 85 c-16 276 -149 545 -375 754 -144 133 -298
217 -489 268 -97 26 -314 33 -421 14z m342 -71 c223 -39 404 -139 575 -317 44
-46 100 -114 126 -153 79 -121 157 -295 84 -189 -241 350 -654 481 -1131 357
-127 -33 -187 -56 -382 -144 -698 -316 -1195 -422 -1908 -406 -267 6 -408 18
-720 61 -243 33 -402 41 -560 27 -279 -25 -543 -109 -744 -238 l-54 -35 24 41
c99 166 299 332 511 423 312 134 693 161 1453 102 419 -32 826 -39 995 -15
266 36 393 79 751 249 478 228 711 284 980 237z m-54 -1915 c318 -141 443
-181 622 -201 86 -10 217 -6 264 7 30 9 21 -60 -18 -135 -79 -149 -319 -421
-523 -592 -284 -237 -590 -371 -771 -338 -146 27 -252 173 -282 387 -6 42 -12
79 -14 81 -7 6 -144 -50 -167 -68 -19 -16 -22 -32 -30 -147 -4 -71 -15 -158
-24 -194 -17 -70 -68 -176 -109 -225 -24 -29 -25 -29 -40 -11 -10 13 -15 42
-15 80 0 99 -19 232 -40 290 -11 29 -43 91 -71 137 -118 194 -163 312 -163
429 0 58 5 86 22 122 26 54 43 66 132 97 36 13 159 66 273 117 136 61 257 108
350 135 376 109 418 111 604 29z m-1127 -3577 l30 -41 -32 -11 c-73 -24 -274
-51 -371 -50 -83 0 -97 2 -77 11 79 35 265 131 311 161 l54 35 27 -32 c15 -17
41 -50 58 -73z"/>
<path d="M32895 12463 c8 -27 156 -550 330 -1163 255 -896 552 -1941 651
-2287 l15 -53 1183 0 1183 0 6 122 c4 66 7 144 7 172 0 50 1 52 61 100 33 27
127 113 208 192 504 488 876 1068 1071 1671 57 175 106 403 116 533 6 85 6 85
-85 405 -51 176 -94 328 -97 338 -5 16 -28 17 -289 17 l-284 0 -65 -87 c-61
-82 -119 -174 -240 -378 l-53 -90 216 -5 c197 -5 220 -7 256 -27 85 -45 115
-105 123 -239 4 -76 1 -102 -17 -157 -38 -113 -161 -300 -292 -442 -243 -264
-515 -477 -810 -635 -226 -121 -329 -198 -479 -357 -176 -188 -307 -419 -376
-663 -51 -182 -121 -289 -220 -340 l-49 -25 -375 0 c-276 0 -388 3 -425 13
-76 20 -153 77 -201 150 -48 72 -71 139 -178 522 -41 146 -127 447 -191 670
-329 1141 -356 1238 -362 1345 -5 87 -5 92 22 123 54 65 4 62 1302 62 689 0
1174 4 1178 9 5 10 -131 325 -204 469 l-41 82 -1305 0 -1304 0 14 -47z"/>
<path d="M21220 11304 c-96 -25 -161 -64 -236 -138 -113 -113 -161 -240 -151
-396 15 -235 172 -421 399 -475 176 -41 356 11 485 140 210 210 201 550 -20
752 -126 114 -313 161 -477 117z"/>
<path d="M16844 10396 c-209 -51 -298 -99 -411 -219 -119 -127 -179 -295 -171
-475 4 -89 17 -142 164 -649 l159 -552 255 -125 c438 -215 679 -310 1350 -533
519 -172 729 -252 935 -354 260 -128 358 -232 295 -312 -38 -48 -80 -39 -207
45 -197 130 -299 158 -469 127 -72 -12 -214 -58 -214 -68 0 -4 18 -22 40 -40
62 -49 52 -95 -22 -107 -48 -8 -204 22 -265 52 -63 30 -144 116 -204 215 -24
40 -62 92 -85 114 -63 64 -146 88 -838 250 -203 47 -371 83 -374 81 -3 -3 11
-61 30 -128 172 -597 291 -1004 294 -1007 2 -2 47 15 101 37 453 190 958 272
1428 232 616 -53 1182 -277 1666 -661 133 -105 371 -344 478 -479 535 -674
763 -1534 630 -2378 -79 -510 -275 -962 -609 -1407 l-30 -40 69 -513 c74 -556
70 -541 141 -590 33 -22 37 -22 369 -22 296 1 332 2 304 15 -20 8 -40 29 -52
54 -38 73 -44 171 -31 466 6 149 13 276 16 283 2 8 8 230 14 496 10 486 20
656 65 1111 77 779 83 1141 24 1550 -87 608 -339 1120 -812 1651 -68 77 -177
188 -243 248 -65 61 -123 115 -129 121 -23 25 -308 248 -405 317 -101 71 -405
268 -415 268 -2 0 -42 22 -87 49 -124 73 -433 228 -608 305 -185 81 -407 167
-740 286 -887 317 -1105 440 -1190 672 -22 60 -274 929 -289 998 -17 74 -13
209 8 292 31 121 84 214 171 304 29 30 46 54 39 53 -8 -1 -73 -15 -145 -33z"/>
<path d="M34371 7268 c170 -596 368 -1293 441 -1550 73 -258 136 -468 140
-468 12 0 180 256 311 473 184 308 364 670 502 1012 182 453 330 974 404 1425
12 69 23 140 26 158 l6 32 -1069 0 -1069 0 308 -1082z"/>
<path d="M24590 7649 c-268 -31 -397 -165 -455 -471 -37 -201 -38 -219 -44
-1998 l-6 -1755 -22 -47 c-57 -123 -169 -106 -373 58 -199 159 -323 175 -450
58 -63 -59 -108 -140 -134 -241 -9 -33 -45 -337 -81 -675 -35 -337 -80 -761
-100 -943 -19 -181 -42 -397 -50 -479 -9 -82 -22 -161 -30 -175 -17 -33 -53
-67 -85 -80 -18 -7 55 -10 246 -10 265 -1 272 -1 304 21 71 49 66 25 130 628
33 304 61 555 64 557 3 3 87 -24 188 -60 301 -107 608 -200 918 -277 91 -22
172 -43 180 -45 13 -4 15 20 15 178 0 100 4 219 8 265 l8 82 -134 0 c-109 0
-136 3 -140 15 -26 66 -31 453 -9 620 l7 50 93 3 92 3 -7 67 c-11 93 -8 518 3
567 l10 40 183 3 c167 2 182 4 177 20 -3 9 -10 78 -17 152 -11 130 -7 311 10
434 l8 56 -341 2 -340 3 -9 45 c-12 58 -15 485 -4 573 l9 67 159 0 160 0 -8
68 c-10 85 -10 457 -1 539 l8 62 -87 3 -87 3 -10 40 c-12 50 -14 509 -3 588
l8 57 276 0 c240 0 274 2 269 15 -3 8 -11 85 -17 170 -9 120 -9 190 0 310 6
85 14 162 17 170 5 13 354 15 3034 15 l3028 0 12 -132 c13 -132 8 -428 -8
-513 l-7 -40 -273 -3 -274 -2 6 -28 c24 -112 24 -521 0 -617 l-6 -25 90 0 90
0 7 -41 c21 -125 21 -484 0 -609 l-7 -40 -160 0 -160 0 6 -24 c17 -68 26 -325
16 -458 -6 -78 -13 -152 -16 -165 l-6 -23 345 0 345 0 12 -132 c12 -127 9
-387 -6 -500 l-7 -48 -184 0 -185 0 7 -40 c21 -126 21 -474 0 -600 l-7 -40
-92 0 -93 0 10 -62 c12 -81 12 -464 0 -545 l-10 -63 137 0 c154 0 150 2 150
-77 0 -18 2 -33 5 -33 2 0 62 23 131 50 70 28 128 50 129 48 5 -5 32 -244 85
-748 35 -327 56 -495 67 -517 8 -19 30 -43 47 -56 30 -21 41 -22 271 -25 l240
-3 -41 21 c-77 38 -77 40 -133 570 -28 261 -66 626 -86 810 -75 707 -69 1289
35 3410 57 1155 59 1248 24 1435 -63 338 -314 476 -934 515 -204 12 -6029 12
-6140 -1z"/>
</g>
</svg>
